<?xml version="1.0" encoding="utf-8"?>
<!-- Generator: Adobe Illustrator 23.0.6, SVG Export Plug-In . SVG Version: 6.00 Build 0)  -->
<svg version="1.1" id="Layer_1" xmlns="http://www.w3.org/2000/svg" xmlns:xlink="http://www.w3.org/1999/xlink" x="0px" y="0px"
	 viewBox="0 0 250 150" style="enable-background:new 0 0 250 150;" xml:space="preserve">
<style type="text/css">
	.st0{fill:#BE1E2D;}
	.st1{fill:#FFFFFF;}
	.st2{fill:#2E3192;}
</style>
<g>
	<rect class="st0" width="250" height="11.5"/>
	<rect y="11.5" class="st1" width="250" height="11.5"/>
	<rect x="0" y="23.1" class="st0" width="250" height="11.5"/>
	<rect x="0" y="34.6" class="st1" width="250" height="11.5"/>
	<rect x="0" y="46.2" class="st0" width="250" height="11.5"/>
	<rect x="0" y="57.7" class="st1" width="250" height="11.5"/>
	<rect x="0" y="69.2" class="st0" width="250" height="11.5"/>
	<rect x="0" y="80.8" class="st1" width="250" height="11.5"/>
	<rect y="92.3" class="st0" width="250" height="11.5"/>
	<rect y="103.8" class="st1" width="250" height="11.5"/>
	<rect x="0" y="115.4" class="st0" width="250" height="11.5"/>
	<rect x="0" y="138.5" class="st0" width="250" height="11.5"/>
	<rect x="0" y="126.9" class="st1" width="250" height="11.5"/>
</g>
<rect x="0" class="st2" width="100" height="80.8"/>
<g>
	<polygon class="st1" points="7.4,4 8.7,6.6 11.6,7.1 9.5,9.1 10,12.1 7.4,10.7 4.8,12.1 5.3,9.1 3.1,7.1 6.1,6.6 	"/>
	<polygon class="st1" points="15.9,12 17.2,14.6 20.2,15 18,17.1 18.5,20.1 15.9,18.7 13.3,20.1 13.8,17.1 11.6,15 14.6,14.6 	"/>
	<polygon class="st1" points="7.4,20.1 8.7,22.7 11.6,23.2 9.5,25.2 10,28.2 7.4,26.8 4.8,28.2 5.3,25.2 3.1,23.2 6.1,22.7 	"/>
	<polygon class="st1" points="15.9,28 17.2,30.7 20.2,31.1 18,33.2 18.5,36.1 15.9,34.8 13.3,36.1 13.8,33.2 11.6,31.1 14.6,30.7 	
		"/>
	<polygon class="st1" points="7.4,36.1 8.7,38.8 11.6,39.2 9.5,41.3 10,44.2 7.4,42.8 4.8,44.2 5.3,41.3 3.1,39.2 6.1,38.8 	"/>
	<polygon class="st1" points="15.9,44.2 17.2,46.9 20.2,47.3 18,49.4 18.5,52.3 15.9,50.9 13.3,52.3 13.8,49.4 11.6,47.3 14.6,46.9 
			"/>
	<polygon class="st1" points="7.4,52.3 8.7,55 11.6,55.4 9.5,57.5 10,60.4 7.4,59 4.8,60.4 5.3,57.5 3.1,55.4 6.1,55 	"/>
	<polygon class="st1" points="15.9,60.3 17.2,63 20.2,63.4 18,65.5 18.5,68.4 15.9,67 13.3,68.4 13.8,65.5 11.6,63.4 14.6,63 	"/>
	<polygon class="st1" points="7.4,68.4 8.7,71 11.6,71.5 9.5,73.5 10,76.5 7.4,75.1 4.8,76.5 5.3,73.5 3.1,71.5 6.1,71 	"/>
	<polygon class="st1" points="24.4,4.4 25.7,7 28.7,7.4 26.6,9.5 27.1,12.5 24.4,11.1 21.8,12.5 22.3,9.5 20.2,7.4 23.1,7 	"/>
	<polygon class="st1" points="33,12.3 34.3,15 37.2,15.4 35.1,17.5 35.6,20.4 33,19.1 30.3,20.4 30.8,17.5 28.7,15.4 31.6,15 	"/>
	<polygon class="st1" points="24.4,20.4 25.7,23.1 28.7,23.5 26.6,25.6 27.1,28.5 24.4,27.2 21.8,28.5 22.3,25.6 20.2,23.5 
		23.1,23.1 	"/>
	<polygon class="st1" points="33,28.4 34.3,31.1 37.2,31.5 35.1,33.6 35.6,36.5 33,35.1 30.3,36.5 30.8,33.6 28.7,31.5 31.6,31.1 	
		"/>
	<polygon class="st1" points="24.4,36.5 25.7,39.2 28.7,39.6 26.6,41.7 27.1,44.6 24.4,43.2 21.8,44.6 22.3,41.7 20.2,39.6 
		23.1,39.2 	"/>
	<polygon class="st1" points="33,44.6 34.3,47.3 37.2,47.7 35.1,49.8 35.6,52.7 33,51.3 30.3,52.7 30.8,49.8 28.7,47.7 31.6,47.3 	
		"/>
	<polygon class="st1" points="24.4,52.7 25.7,55.4 28.7,55.8 26.6,57.9 27.1,60.8 24.4,59.4 21.8,60.8 22.3,57.9 20.2,55.8 
		23.1,55.4 	"/>
	<polygon class="st1" points="33,60.7 34.3,63.3 37.2,63.8 35.1,65.9 35.6,68.8 33,67.4 30.3,68.8 30.8,65.9 28.7,63.8 31.6,63.3 	
		"/>
	<polygon class="st1" points="24.4,68.8 25.7,71.4 28.7,71.9 26.6,73.9 27.1,76.9 24.4,75.5 21.8,76.9 22.3,73.9 20.2,71.9 
		23.1,71.4 	"/>
	<polygon class="st1" points="41.5,3.9 42.8,6.6 45.7,7 43.6,9.1 44.1,12 41.5,10.6 38.8,12 39.3,9.1 37.2,7 40.2,6.6 	"/>
	<polygon class="st1" points="50,11.9 51.3,14.6 54.3,15 52.1,17.1 52.6,20 50,18.6 47.4,20 47.9,17.1 45.7,15 48.7,14.6 	"/>
	<polygon class="st1" points="41.5,20 42.8,22.7 45.7,23.1 43.6,25.2 44.1,28.1 41.5,26.7 38.8,28.1 39.3,25.2 37.2,23.1 40.2,22.7 
			"/>
	<polygon class="st1" points="50,28 51.3,30.6 54.3,31.1 52.1,33.1 52.6,36.1 50,34.7 47.4,36.1 47.9,33.1 45.7,31.1 48.7,30.6 	"/>
	<polygon class="st1" points="41.5,36 42.8,38.7 45.7,39.1 43.6,41.2 44.1,44.2 41.5,42.8 38.8,44.2 39.3,41.2 37.2,39.1 40.2,38.7 
			"/>
	<polygon class="st1" points="50,44.2 51.3,46.8 54.3,47.2 52.1,49.3 52.6,52.3 50,50.9 47.4,52.3 47.9,49.3 45.7,47.2 48.7,46.8 	
		"/>
	<polygon class="st1" points="41.5,52.3 42.8,54.9 45.7,55.4 43.6,57.4 44.1,60.4 41.5,59 38.8,60.4 39.3,57.4 37.2,55.4 40.2,54.9 
			"/>
	<polygon class="st1" points="50,60.2 51.3,62.9 54.3,63.3 52.1,65.4 52.6,68.3 50,67 47.4,68.3 47.9,65.4 45.7,63.3 48.7,62.9 	"/>
	<polygon class="st1" points="41.5,68.3 42.8,71 45.7,71.4 43.6,73.5 44.1,76.4 41.5,75 38.8,76.4 39.3,73.5 37.2,71.4 40.2,71 	"/>
	<polygon class="st1" points="58.5,3.9 59.8,6.6 62.8,7 60.7,9.1 61.2,12 58.5,10.6 55.9,12 56.4,9.1 54.3,7 57.2,6.6 	"/>
	<polygon class="st1" points="67,11.9 68.4,14.6 71.3,15 69.2,17.1 69.7,20 67,18.6 64.4,20 64.9,17.1 62.8,15 65.7,14.6 	"/>
	<polygon class="st1" points="58.5,20 59.8,22.7 62.8,23.1 60.7,25.2 61.2,28.1 58.5,26.7 55.9,28.1 56.4,25.2 54.3,23.1 57.2,22.7 
			"/>
	<polygon class="st1" points="67,28 68.4,30.6 71.3,31.1 69.2,33.1 69.7,36.1 67,34.7 64.4,36.1 64.9,33.1 62.8,31.1 65.7,30.6 	"/>
	<polygon class="st1" points="58.5,36 59.8,38.7 62.8,39.1 60.7,41.2 61.2,44.2 58.5,42.8 55.9,44.2 56.4,41.2 54.3,39.1 57.2,38.7 
			"/>
	<polygon class="st1" points="67,44.2 68.4,46.8 71.3,47.2 69.2,49.3 69.7,52.3 67,50.9 64.4,52.3 64.9,49.3 62.8,47.2 65.7,46.8 	
		"/>
	<polygon class="st1" points="58.5,52.3 59.8,54.9 62.8,55.4 60.7,57.4 61.2,60.4 58.5,59 55.9,60.4 56.4,57.4 54.3,55.4 57.2,54.9 
			"/>
	<polygon class="st1" points="67,60.2 68.4,62.9 71.3,63.3 69.2,65.4 69.7,68.3 67,67 64.4,68.3 64.9,65.4 62.8,63.3 65.7,62.9 	"/>
	<polygon class="st1" points="58.5,68.3 59.8,71 62.8,71.4 60.7,73.5 61.2,76.4 58.5,75 55.9,76.4 56.4,73.5 54.3,71.4 57.2,71 	"/>
	<polygon class="st1" points="75.6,3.9 76.9,6.6 79.8,7 77.7,9.1 78.2,12 75.6,10.6 72.9,12 73.4,9.1 71.3,7 74.3,6.6 	"/>
	<polygon class="st1" points="84.1,11.9 85.4,14.6 88.4,15 86.2,17.1 86.7,20 84.1,18.6 81.5,20 82,17.1 79.8,15 82.8,14.6 	"/>
	<polygon class="st1" points="75.6,20 76.9,22.7 79.8,23.1 77.7,25.2 78.2,28.1 75.6,26.7 72.9,28.1 73.4,25.2 71.3,23.1 74.3,22.7 
			"/>
	<polygon class="st1" points="84.1,28 85.4,30.6 88.4,31.1 86.2,33.1 86.7,36.1 84.1,34.7 81.5,36.1 82,33.1 79.8,31.1 82.8,30.6 	
		"/>
	<polygon class="st1" points="75.6,36 76.9,38.7 79.8,39.1 77.7,41.2 78.2,44.2 75.6,42.8 72.9,44.2 73.4,41.2 71.3,39.1 74.3,38.7 
			"/>
	<polygon class="st1" points="84.1,44.2 85.4,46.8 88.4,47.2 86.2,49.3 86.7,52.3 84.1,50.9 81.5,52.3 82,49.3 79.8,47.2 82.8,46.8 
			"/>
	<polygon class="st1" points="75.6,52.3 76.9,54.9 79.8,55.4 77.7,57.4 78.2,60.4 75.6,59 72.9,60.4 73.4,57.4 71.3,55.4 74.3,54.9 
			"/>
	<polygon class="st1" points="84.1,60.2 85.4,62.9 88.4,63.3 86.2,65.4 86.7,68.3 84.1,67 81.5,68.3 82,65.4 79.8,63.3 82.8,62.9 	
		"/>
	<polygon class="st1" points="75.6,68.3 76.9,71 79.8,71.4 77.7,73.5 78.2,76.4 75.6,75 72.9,76.4 73.4,73.5 71.3,71.4 74.3,71 	"/>
	<polygon class="st1" points="92.6,3.9 93.9,6.6 96.9,7 94.7,9.1 95.2,12 92.6,10.6 90,12 90.5,9.1 88.4,7 91.3,6.6 	"/>
	<polygon class="st1" points="92.6,20 93.9,22.7 96.9,23.1 94.7,25.2 95.2,28.1 92.6,26.7 90,28.1 90.5,25.2 88.4,23.1 91.3,22.7 	
		"/>
	<polygon class="st1" points="92.6,36 93.9,38.7 96.9,39.1 94.7,41.2 95.2,44.2 92.6,42.8 90,44.2 90.5,41.2 88.4,39.1 91.3,38.7 	
		"/>
	<polygon class="st1" points="92.6,52.3 93.9,54.9 96.9,55.4 94.7,57.4 95.2,60.4 92.6,59 90,60.4 90.5,57.4 88.4,55.4 91.3,54.9 	
		"/>
	<polygon class="st1" points="92.6,68.3 93.9,71 96.9,71.4 94.7,73.5 95.2,76.4 92.6,75 90,76.4 90.5,73.5 88.4,71.4 91.3,71 	"/>
</g>
</svg>
