<?xml version="1.0" encoding="utf-8"?>
<!-- Generator: Adobe Illustrator 23.0.6, SVG Export Plug-In . SVG Version: 6.00 Build 0)  -->
<svg version="1.1" id="Layer_1" xmlns="http://www.w3.org/2000/svg" xmlns:xlink="http://www.w3.org/1999/xlink" x="0px" y="0px"
	 viewBox="0 0 512 512" style="enable-background:new 0 0 512 512;" xml:space="preserve">
<style type="text/css">
	.st0{display:none;fill:#3296FA;}
	.st1{fill:#FFFFFF;}
</style>
<rect class="st0" width="512" height="512"/>
<path class="st1" d="M279,109.7L156.1,232.5c-3.9,3.9-13.4,0.7-21.2-7.1l-24.7-24.7c-7.8-7.8-11-17.3-7.1-21.2L225.9,56.7
	c3.9-3.9,13.4-0.7,21.2,7.1l24.7,24.7C279.7,96.3,282.9,105.8,279,109.7z"/>
<path class="st1" d="M238.1,88.5l24.7-24.7c7.8-7.8,17.3-11,21.2-7.1l122.8,122.8c3.9,3.9,0.7,13.4-7.1,21.2L375,225.4
	c-7.8,7.8-17.3,11-21.2,7.1L231,109.7C227.1,105.8,230.3,96.3,238.1,88.5z"/>
<path class="st1" d="M292.5,72.9v347.4c0,11-9,20-20,20h-35c-11,0-20-9-20-20V72.9c0-11,9-20,20-20h35
	C283.5,52.9,292.5,61.9,292.5,72.9z"/>
</svg>
