<?xml version="1.0" encoding="utf-8"?>
<!-- Generator: Adobe Illustrator 23.0.6, SVG Export Plug-In . SVG Version: 6.00 Build 0)  -->
<svg version="1.1" id="Layer_1" xmlns="http://www.w3.org/2000/svg" xmlns:xlink="http://www.w3.org/1999/xlink" x="0px" y="0px"
	 viewBox="0 0 80 30" style="enable-background:new 0 0 80 30;" xml:space="preserve">
<style type="text/css">
	.st0{fill:#969696;}
	.st1{fill:none;}
	.st2{fill:#646464;}
</style>
<g id="Layer_3">
	<rect x="3.5" y="2.8" class="st0" width="2.8" height="25"/>
	<g>
		<path class="st0" d="M14.6,23.4v4.4h-1.8v-4.4h0.3c0.2,0.1,0.4,0.1,0.6,0.1s0.4,0,0.6-0.1H14.6z"/>
	</g>
	<rect x="21.2" y="2.8" class="st0" width="2.8" height="25"/>
	<g>
		<g>
			<polyline class="st1" points="20.2,2.8 14.6,19.1 14.3,20 			"/>
			<line class="st1" x1="13.7" y1="21.7" x2="13.7" y2="21.7"/>
		</g>
		<g>
			<path class="st0" d="M20.2,2.8l-4.8,16.7l-0.3,1.1c-0.2-0.3-0.5-0.5-0.8-0.6c-0.1,0-0.1,0-0.2,0c-0.1,0-0.3-0.1-0.4-0.1
				c-0.1,0-0.2,0-0.3,0l0.4-0.9l0-0.1L20.2,2.8z"/>
		</g>
	</g>
	<g>
		<g>
			<polyline class="st1" points="7.3,2.8 12.8,19.1 13.1,20 			"/>
			<line class="st1" x1="13.7" y1="21.7" x2="13.7" y2="21.7"/>
		</g>
		<g>
			<path class="st0" d="M14.1,20c-0.1,0-0.3-0.1-0.4-0.1c-0.1,0-0.2,0-0.3,0c-0.1,0-0.2,0-0.3,0.1c-0.3,0.1-0.6,0.3-0.8,0.5l-0.3-1
				L7.3,2.8l6.4,16.1h0l0,0.1L14.1,20z"/>
		</g>
	</g>
	<g>
		<path class="st0" d="M15.4,19.5c-0.2-0.2-0.5-0.3-0.8-0.5c-0.3-0.1-0.5-0.2-0.8-0.2h-0.1c-0.3,0-0.6,0-0.9,0.2
			c-0.3,0.1-0.5,0.2-0.7,0.4c-0.7,0.5-1.2,1.3-1.2,2.3c0,1.2,0.8,2.3,1.9,2.6c0.3,0.1,0.6,0.2,0.9,0.2c0.3,0,0.6,0,0.9-0.2
			c1.1-0.4,1.9-1.4,1.9-2.6C16.5,20.8,16.1,20,15.4,19.5z M14.3,23.4c-0.2,0.1-0.4,0.1-0.6,0.1s-0.4,0-0.6-0.1
			c-0.7-0.2-1.2-0.9-1.2-1.7c0-0.5,0.2-0.9,0.5-1.2c0.2-0.2,0.5-0.4,0.8-0.5c0.1,0,0.2-0.1,0.3-0.1c0.1,0,0.2,0,0.3,0
			c0.1,0,0.3,0,0.4,0.1c0,0,0.1,0,0.2,0c0.3,0.1,0.6,0.3,0.8,0.6c0.2,0.3,0.4,0.7,0.4,1.1C15.5,22.5,15,23.2,14.3,23.4z"/>
	</g>
	<g>
		<path class="st0" d="M8.8,8C8.4,8,8.1,7.7,8.1,7.3s0.3-0.8,0.8-0.8s0.8,0.3,0.8,0.8S9.2,8,8.8,8z M8.8,7C8.7,7,8.6,7.1,8.6,7.3
			c0,0.3,0.5,0.3,0.5,0C9.1,7.1,8.9,7,8.8,7z"/>
	</g>
	<g>
		<path class="st2" d="M47.9,2.8v2.6l-7.7,7.7l0,0c1,0,1.9,0.1,2.9,0.4c1,0.3,1.9,0.7,2.7,1.2c0.8,0.6,1.5,1.3,2,2.2
			c0.5,0.9,0.8,2,0.8,3.2c0,1.5-0.2,2.8-0.7,3.8s-1.2,1.8-2.1,2.5c-0.9,0.6-1.9,1.1-3.2,1.3c-1.2,0.3-2.6,0.4-4,0.4
			c-1.3,0-2.7-0.1-3.9-0.2c-1.3-0.1-2.4-0.3-3.5-0.6l0.2-2.3c1,0.3,2.1,0.5,3.2,0.6c1.2,0.2,2.5-0.4,3.7-0.4c0.9,0,1.8-0.1,2.5-0.2
			s1.4-0.4,1.9-0.8s0.9-0.9,1.2-1.5s0.4-1.4,0.4-2.4c0-1.6-0.5-2.7-1.6-3.4c-1-0.7-2.5-1.1-4.3-1.1h-3v-2.6L43,5.8H31.5v-3
			C31.5,2.8,47.9,2.8,47.9,2.8z"/>
		<path class="st2" d="M64.9,2.8c1.8,0,3.5,0.2,4.9,0.7s2.6,1.2,3.6,2.2s1.7,2.3,2.3,3.8c0.5,1.5,0.8,3.4,0.8,5.5s-0.2,3.9-0.6,5.5
			s-1.1,3-2.1,4.1s-2.2,2-3.8,2.6c-1.5,0.6-3.4,0.9-5.7,0.9c-1.3,0-2.6-0.1-4-0.2c-1.4-0.2-2.8-0.4-4.2-0.7V2.8H64.9z M60.2,24.9
			c1.3,0.2,2.7,0.3,4.2,0.3c2.7,0,4.7-0.8,5.9-2.4c1.2-1.6,1.9-4.2,1.9-7.7c0-1.7-0.2-3.1-0.5-4.3S71,8.6,70.3,7.9
			c-0.6-0.7-1.4-1.3-2.3-1.6s-2-0.5-3.1-0.5h-4.7V24.9z"/>
	</g>
	<g>
		<path class="st0" d="M44.9,2.8v2.6l-7.7,7.7l0,0c1,0,1.9,0.1,2.9,0.4c1,0.3,1.9,0.7,2.7,1.2c0.8,0.6,1.5,1.3,2,2.2
			c0.5,0.9,0.8,2,0.8,3.2c0,1.5-0.2,2.8-0.7,3.8s-1.2,1.8-2.1,2.5c-0.9,0.6-1.9,1.1-3.2,1.3c-1.2,0.3-2.6,0.4-4,0.4
			c-1.3,0-2.7-0.1-3.9-0.2c-1.3-0.1-2.4-0.3-3.5-0.6l0.3-2.9c1,0.3,2.1,0.5,3.2,0.6c1.2,0.2,2.3,0.2,3.5,0.2c0.9,0,1.8-0.1,2.5-0.2
			s1.4-0.4,1.9-0.8s0.9-0.9,1.2-1.5s0.4-1.4,0.4-2.4c0-1.6-0.5-2.7-1.6-3.4c-1-0.7-2.5-1.1-4.3-1.1h-3v-2.6L40,5.8H28.5v-3
			C28.5,2.8,44.9,2.8,44.9,2.8z"/>
		<path class="st0" d="M61.9,2.8c1.8,0,3.5,0.2,4.9,0.7s2.6,1.2,3.6,2.2s1.7,2.3,2.3,3.8c0.5,1.5,0.8,3.4,0.8,5.5s-0.2,3.9-0.6,5.5
			s-1.1,3-2.1,4.1s-2.2,2-3.8,2.6c-1.5,0.6-3.4,0.9-5.7,0.9c-1.3,0-2.6-0.1-4-0.2c-1.4-0.2-2.8-0.4-4.2-0.7V2.8H61.9z M57.2,24.9
			c1.3,0.2,2.7,0.3,4.2,0.3c2.7,0,4.7-0.8,5.9-2.4c1.2-1.6,1.9-4.2,1.9-7.7c0-1.7-0.2-3.1-0.5-4.3S68,8.6,67.3,7.9
			c-0.6-0.7-1.4-1.3-2.3-1.6s-2-0.5-3.1-0.5h-4.7V24.9z"/>
	</g>
	<g>
		<path class="st0" d="M19,9.2c-0.1,0-0.3,0-0.4-0.1l-0.7-0.3l1-2.4l0.7,0.3C19.8,6.8,20,7,20.1,7.2s0.1,0.5,0,0.8l0,0l-0.2,0.5
			c-0.1,0.2-0.3,0.4-0.5,0.5C19.2,9.2,19.1,9.2,19,9.2z M19.4,7.8l0.3,0.1L19.4,7.8z"/>
	</g>
</g>
</svg>
