<?xml version="1.0" encoding="utf-8"?>
<!-- Generator: Adobe Illustrator 23.0.6, SVG Export Plug-In . SVG Version: 6.00 Build 0)  -->
<svg version="1.1" id="Layer_1" xmlns="http://www.w3.org/2000/svg" xmlns:xlink="http://www.w3.org/1999/xlink" x="0px" y="0px"
	 viewBox="0 0 16 16" style="enable-background:new 0 0 16 16;" xml:space="preserve">
<style type="text/css">
	.st0{fill:#969696;}
	.st1{fill:none;}
</style>
<g id="Layer_3">
	<rect x="2.3" y="1" class="st0" width="1.6" height="14"/>
	<g>
		<path class="st0" d="M8.5,12.5V15h-1v-2.5h0c0.1,0.1,0.3,0.1,0.5,0.1S8.3,12.6,8.5,12.5L8.5,12.5z"/>
	</g>
	<rect x="12.2" y="1" class="st0" width="1.6" height="14"/>
	<g>
		<g>
			<polyline class="st1" points="11.6,1 8.5,10.1 8.3,10.7 			"/>
		</g>
		<g>
			<path class="st0" d="M11.6,1l-2.7,9.3l-0.2,0.6c-0.1-0.1-0.3-0.2-0.4-0.3c0,0-0.1,0-0.1,0c-0.1,0-0.1,0-0.2,0s-0.1,0-0.2,0
				L8,10.1L8,10L11.6,1z"/>
		</g>
	</g>
	<g>
		<g>
			<polyline class="st1" points="4.4,1 7.5,10.1 7.7,10.6 			"/>
		</g>
		<g>
			<path class="st0" d="M8.2,10.6c-0.1,0-0.1,0-0.2,0s-0.1,0-0.2,0c0,0-0.1,0-0.1,0c-0.2,0-0.3,0.1-0.4,0.3l-0.2-0.6L4.4,1L8,10
				l0,0.1L8.2,10.6z"/>
		</g>
	</g>
	<g>
		<path class="st0" d="M8.9,10.3c-0.1-0.1-0.3-0.2-0.4-0.2C8.4,10,8.2,10,8,10H8c-0.2,0-0.3,0-0.5,0.1c-0.1,0-0.3,0.1-0.4,0.2
			c-0.4,0.3-0.7,0.8-0.7,1.3c0,0.7,0.5,1.3,1.1,1.5c0.2,0.1,0.3,0.1,0.5,0.1c0.2,0,0.3,0,0.5-0.1c0.7-0.2,1.1-0.8,1.1-1.5
			C9.6,11,9.3,10.6,8.9,10.3z M8.5,12.5c-0.1,0.1-0.3,0.1-0.5,0.1s-0.3,0-0.5-0.1C7.2,12.3,7,12,7,11.6c0-0.3,0.1-0.5,0.3-0.7
			c0.1-0.1,0.3-0.2,0.4-0.3c0,0,0.1,0,0.1,0c0.1,0,0.1,0,0.2,0s0.1,0,0.2,0c0,0,0.1,0,0.1,0c0.2,0.1,0.3,0.2,0.4,0.3
			C8.9,11.1,9,11.3,9,11.6C9,12,8.8,12.3,8.5,12.5z"/>
	</g>
	<g>
		<path class="st0" d="M5.2,3.9C5,3.9,4.8,3.7,4.8,3.5S5,3.1,5.3,3.1s0.4,0.2,0.4,0.4S5.5,3.9,5.2,3.9z M5.2,3.4
			c-0.1,0-0.1,0.1-0.1,0.2c0,0.2,0.3,0.2,0.3,0S5.3,3.4,5.2,3.4z"/>
	</g>
	<g>
		<path class="st0" d="M10.9,4.6c-0.1,0-0.2,0-0.2-0.1l-0.4-0.2L10.9,3l0.4,0.2c0.1,0.1,0.2,0.2,0.3,0.3s0.1,0.3,0,0.4l0,0l-0.1,0.3
			c-0.1,0.1-0.2,0.2-0.3,0.3C11.1,4.6,11,4.6,10.9,4.6z M11.2,3.8l0.2,0.1L11.2,3.8z"/>
	</g>
</g>
</svg>
